<?xml version="1.0" standalone="no"?>
<!DOCTYPE svg PUBLIC "-//W3C//DTD SVG 20010904//EN"
 "http://www.w3.org/TR/2001/REC-SVG-20010904/DTD/svg10.dtd">
<svg version="1.0" xmlns="http://www.w3.org/2000/svg"
 width="224.000000pt" height="73.000000pt" viewBox="0 0 224.000000 73.000000"
 preserveAspectRatio="xMidYMid meet">

<g transform="translate(0.000000,73.000000) scale(0.100000,-0.100000)"
fill="#000000" stroke="none">
<path d="M440 385 c0 -143 0 -145 25 -161 18 -12 35 -14 66 -9 36 6 40 10 35
29 -3 11 -6 24 -6 29 0 4 -9 7 -19 7 -27 0 -31 18 -31 141 l0 109 -35 0 -35 0
0 -145z"/>
<path d="M190 365 l0 -155 45 0 45 0 0 60 0 60 50 0 50 0 0 35 0 35 -50 0
c-47 0 -50 2 -50 25 0 24 3 25 60 25 l60 0 0 35 0 35 -105 0 -105 0 0 -155z"/>
<path d="M1291 383 c-24 -76 -46 -146 -48 -155 -5 -15 1 -18 35 -18 37 0 41 3
47 30 6 28 9 30 55 30 46 0 49 -2 55 -30 6 -27 10 -30 46 -30 21 0 39 5 39 10
0 6 -21 76 -47 155 l-47 145 -46 0 -46 0 -43 -137z m119 -45 c0 -5 -14 -8 -30
-8 -28 0 -30 2 -24 28 4 15 11 38 17 52 9 24 10 23 23 -20 7 -25 14 -48 14
-52z"/>
<path d="M870 475 c0 -24 -5 -35 -15 -35 -10 0 -15 -10 -15 -30 0 -20 5 -30
15 -30 12 0 15 -14 15 -65 0 -84 21 -110 82 -102 50 7 61 17 53 50 -5 19 -13
26 -29 24 -18 -2 -21 4 -24 46 -3 42 -1 47 17 47 17 0 21 6 21 30 0 23 -4 30
-20 30 -16 0 -20 7 -20 35 0 34 -1 35 -40 35 -39 0 -40 -1 -40 -35z"/>
<path d="M638 430 c-44 -13 -48 -18 -36 -44 10 -23 12 -24 46 -9 27 11 41 12
59 4 34 -16 28 -31 -10 -24 -79 12 -139 -48 -106 -106 23 -40 63 -50 108 -25
37 20 39 20 50 2 7 -11 23 -18 41 -18 28 0 30 3 30 34 0 19 -4 38 -10 41 -5 3
-10 26 -10 51 0 25 -4 54 -10 64 -18 33 -92 48 -152 30z m81 -119 c21 -13 -3
-41 -35 -41 -31 0 -41 20 -19 37 22 15 34 16 54 4z"/>
<path d="M1080 427 c-30 -15 -50 -52 -42 -79 3 -13 26 -30 61 -46 46 -21 52
-27 33 -30 -13 -2 -37 2 -54 9 -25 10 -31 10 -39 -2 -16 -25 -4 -44 36 -57 74
-25 145 4 145 58 0 32 -16 47 -67 65 -46 16 -59 40 -17 33 16 -3 36 -8 45 -12
11 -5 19 1 27 19 11 24 10 27 -23 41 -42 17 -72 18 -105 1z"/>
<path d="M1550 280 l0 -160 40 0 40 0 0 59 0 60 28 -15 c52 -27 98 -10 127 46
30 57 9 127 -45 155 -36 19 -57 19 -92 1 -24 -13 -28 -13 -28 0 0 9 -11 14
-35 14 l-35 0 0 -160z m161 69 c24 -46 -33 -93 -69 -57 -13 13 -16 60 -5 71
15 16 63 6 74 -14z"/>
<path d="M1830 280 l0 -160 40 0 40 0 0 60 c0 64 3 68 34 45 24 -18 47 -19 81
-3 34 15 55 57 55 109 0 78 -90 136 -146 94 -25 -19 -34 -19 -34 0 0 10 -11
15 -35 15 l-35 0 0 -160z m158 78 c17 -17 15 -53 -3 -68 -38 -31 -96 27 -65
65 15 18 51 20 68 3z"/>
</g>
</svg>
